<svg width="38" height="56" viewBox="0 0 38 56" fill="none" xmlns="http://www.w3.org/2000/svg">
<path d="M19.1953 49.5156C16.5547 49.5156 14.1797 49.0781 12.0703 48.2031C9.97656 47.3125 8.24219 46.0781 6.86719 44.5C5.50781 42.9062 4.46094 41.0234 3.72656 38.8516C3.00781 36.6797 2.64844 34.2969 2.64844 31.7031C2.64844 28.2031 3.3125 25.1094 4.64062 22.4219C5.96875 19.7344 7.94531 17.6172 10.5703 16.0703C13.1953 14.5234 16.3047 13.75 19.8984 13.75C23.8828 13.75 27.3828 14.6563 30.3984 16.4688L28.8516 19.8203C25.9453 18.1484 22.9766 17.3125 19.9453 17.3125C17.8359 17.3125 15.9453 17.6797 14.2734 18.4141C12.6172 19.1328 11.2578 20.1406 10.1953 21.4375C9.14844 22.7188 8.34375 24.2344 7.78125 25.9844C7.23438 27.7188 6.96094 29.625 6.96094 31.7031C6.96094 36.1094 8.05469 39.5938 10.2422 42.1562C12.4453 44.7031 15.6875 45.9766 19.9688 45.9766C22.4062 45.9766 24.8828 45.4844 27.3984 44.5V34.6094H19.2188L19.3594 31.0703H31.1953V46.9141C29.2266 47.8516 27.3203 48.5234 25.4766 48.9297C23.6484 49.3203 21.5547 49.5156 19.1953 49.5156Z" fill="#F3F3F3"/>
<path d="M17.8242 38V34.1914H10.0781V32.1055L17.0273 20.9141H20.9297V31.8711H23.0391L22.8867 34.1914H20.9297V38H17.8242ZM13.125 31.8828H17.8242V23.9141L13.125 31.8828Z" fill="#F3F3F3"/>
<path d="M25 28.6348C25.2227 28.8145 25.4902 28.9043 25.8027 28.9043C26.1152 28.9043 26.3809 28.8145 26.5996 28.6348C26.8223 28.4551 26.9902 28.207 27.1035 27.8906C27.2207 27.5703 27.3047 27.2305 27.3555 26.8711C27.4062 26.5078 27.4316 26.1055 27.4316 25.6641C27.4316 23.5469 26.8887 22.4883 25.8027 22.4883C24.7246 22.4883 24.1777 23.5391 24.1621 25.6406C24.1621 26.0859 24.1875 26.4902 24.2383 26.8535C24.2891 27.2168 24.373 27.5605 24.4902 27.8848C24.6074 28.2051 24.7773 28.4551 25 28.6348ZM27.0508 29.8887C26.6836 30.0449 26.2676 30.123 25.8027 30.123C25.3379 30.123 24.9199 30.0449 24.5488 29.8887C24.1777 29.7285 23.8711 29.5137 23.6289 29.2441C23.3867 28.9707 23.1836 28.6445 23.0195 28.2656C22.8594 27.8867 22.7441 27.4863 22.6738 27.0645C22.6074 26.6426 22.5742 26.1914 22.5742 25.7109C22.5742 25.2227 22.6094 24.7656 22.6797 24.3398C22.75 23.9102 22.8672 23.5059 23.0312 23.127C23.1953 22.7441 23.3984 22.418 23.6406 22.1484C23.8867 21.8789 24.1934 21.666 24.5605 21.5098C24.9277 21.3496 25.3418 21.2695 25.8027 21.2695C26.2637 21.2695 26.6777 21.3496 27.0449 21.5098C27.4121 21.666 27.7168 21.8809 27.959 22.1543C28.2012 22.4238 28.4023 22.75 28.5625 23.1328C28.7266 23.5117 28.8438 23.9141 28.9141 24.3398C28.9844 24.7656 29.0195 25.2227 29.0195 25.7109C29.0195 26.1914 28.9844 26.6426 28.9141 27.0645C28.8477 27.4863 28.7344 27.8887 28.5742 28.2715C28.4141 28.6504 28.2129 28.9746 27.9707 29.2441C27.7285 29.5137 27.4219 29.7285 27.0508 29.8887Z" fill="#F3F3F3"/>
</svg>
