<svg xmlns="http://www.w3.org/2000/svg" xmlns:xlink="http://www.w3.org/1999/xlink" version="1.1"  x="0px" y="0px" width="32" height="32" viewBox="0 0 40 40" enable-background="new 0 0 40 40" xml:space="preserve" preserveAspectRatio="none" style="fill: rgb(191, 66, 188);" viewbox="0 0 32 32">
<g id="553334107_Shape_5_xA0_Clipping_Path_1_">
	<g>
		<path d="M20,4C11.164,4,4,11.163,4,20c0,4.389,1.772,8.356,4.634,11.245L6.098,35h11.935l-4.45-11.083l-2.645,3.916    C9.116,25.73,8,23.001,8,20c0-6.627,5.373-12,12-12c6.627,0,12,5.373,12,12c0,4.77-2.79,8.877-6.821,10.813l1.658,3.637    C32.248,31.884,36,26.387,36,20C36,11.163,28.836,4,20,4z" style="fill: rgb(191, 66, 188);"></path>
	</g>
</g>
</svg>